<?xml version="1.0" standalone="no"?>
<!DOCTYPE svg PUBLIC "-//W3C//DTD SVG 20010904//EN"
 "http://www.w3.org/TR/2001/REC-SVG-20010904/DTD/svg10.dtd">
<svg version="1.0" xmlns="http://www.w3.org/2000/svg"
 width="268.000000pt" height="268.000000pt" viewBox="0 0 268.000000 268.000000"
 preserveAspectRatio="xMidYMid meet">

<g transform="translate(0.000000,268.000000) scale(0.100000,-0.100000)"
fill="#000000" stroke="none">
<path d="M882 2599 c-309 -106 -604 -375 -753 -686 -22 -47 -39 -86 -37 -88 2
-1 53 -10 113 -20 450 -69 860 -275 1066 -533 29 -37 56 -71 60 -75 3 -5 22
13 42 40 50 68 159 174 249 241 202 150 509 272 821 323 72 12 133 23 135 24
6 5 -56 135 -94 198 -95 158 -252 326 -395 422 -119 80 -329 179 -345 162 -5
-5 11 -219 21 -278 3 -23 -1 -28 -34 -37 -90 -27 -170 -119 -210 -238 -20 -62
-46 -229 -57 -376 l-6 -78 -39 0 -39 0 0 240 0 240 -40 0 -40 0 0 -240 0 -240
-44 0 -43 0 -7 133 c-19 349 -95 510 -262 557 l-40 12 18 136 c10 75 17 146
16 158 -3 21 -3 21 -56 3z"/>
<path d="M11 1513 c-37 -289 22 -580 168 -836 23 -39 50 -83 60 -95 l17 -24
76 55 c204 146 505 254 791 283 37 3 67 8 67 10 0 3 -12 28 -26 57 -70 139
-205 291 -346 391 -194 137 -460 229 -699 243 l-96 6 -12 -90z"/>
<path d="M2430 1585 c-416 -71 -763 -305 -924 -622 -14 -29 -26 -54 -26 -57 0
-2 30 -7 68 -10 283 -29 586 -137 785 -280 43 -31 80 -56 81 -56 10 0 91 138
130 220 92 196 132 393 122 615 -3 77 -9 155 -12 173 l-6 32 -72 -1 c-39 -1
-105 -7 -146 -14z"/>
<path d="M1135 849 c-203 -21 -403 -74 -560 -148 -95 -44 -285 -166 -285 -183
0 -6 42 -53 93 -105 l92 -94 90 54 c204 123 416 191 645 206 l95 6 3 138 3
137 -48 -1 c-26 -1 -84 -5 -128 -10z"/>
<path d="M1362 723 l3 -138 100 -7 c231 -15 471 -96 673 -225 l54 -34 46 43
c51 45 142 146 142 155 0 8 -22 25 -119 90 -198 132 -442 212 -740 242 -57 6
-116 11 -132 11 l-30 0 3 -137z"/>
<path d="M1130 525 c-203 -28 -424 -109 -568 -207 l-44 -30 54 -39 c29 -21 89
-57 133 -80 l80 -42 68 32 c133 63 310 111 413 111 l44 0 0 135 0 135 -42 -1
c-24 -1 -86 -7 -138 -14z"/>
<path d="M1360 406 l0 -136 38 0 c101 0 288 -49 409 -106 l76 -37 55 27 c31
15 91 50 135 79 l80 51 -29 23 c-45 36 -210 118 -306 152 -99 34 -255 66 -375
77 l-83 7 0 -137z"/>
<path d="M1212 219 c-136 -17 -376 -99 -355 -120 26 -26 320 -89 416 -89 l37
0 0 110 c0 99 -2 110 -17 109 -10 -1 -46 -5 -81 -10z"/>
<path d="M1360 120 l0 -110 38 0 c87 0 300 43 397 80 l30 12 -25 13 c-86 49
-243 93 -387 110 l-53 6 0 -111z"/>
</g>
</svg>
